<?xml version="1.0" encoding="utf-8"?>
<!-- Generator: Adobe Illustrator 20.1.0, SVG Export Plug-In . SVG Version: 6.00 Build 0)  -->
<svg version="1.1" id="Layer_1" xmlns="http://www.w3.org/2000/svg" xmlns:xlink="http://www.w3.org/1999/xlink" width="32" height="32" x="0px" y="0px"
	 viewBox="-2 -2 32 32" style="enable-background:new 0 0 32 32;" xml:space="preserve">
<style type="text/css">
	.st0{fill:#808080;}
</style>
<path class="st0" d="M21.3,10.5V11c0,4.7-3.5,10.1-9.9,10.1c-2,0-3.8-0.6-5.3-1.6c0.3,0,0.6,0.1,0.8,0.1c1.6,0,3.1-0.6,4.3-1.5
	c-1.5,0-2.8-1-3.3-2.4c0.2,0,0.4,0.1,0.7,0.1l0.9-0.1c-1.6-0.3-2.8-1.8-2.8-3.5c0.5,0.3,1,0.4,1.6,0.4C7.4,12,6.7,10.9,6.7,9.7
	c0-0.6,0.2-1.3,0.5-1.8c1.7,2.1,4.3,3.6,7.2,3.7c-0.1-0.3-0.1-0.5-0.1-0.8c0-2,1.6-3.5,3.5-3.5c1,0,1.9,0.4,2.5,1.1
	c0.8-0.1,1.5-0.4,2.2-0.8c-0.3,0.8-0.8,1.5-1.5,1.9c0.7-0.1,1.4-0.3,2-0.5C22.6,9.4,22,10,21.3,10.5z"/>
</svg>
